/vscmnt/brussel_pixiu_data/_data_brussel/112/vsc11236/PredSimResults/SUBJ07mtu3D/worker5.mot
version=1
nRows=10
nColumns=50
inDegrees=yes
endheader
                time	         pelvis_tilt	         pelvis_list	     pelvis_rotation	           pelvis_tx	           pelvis_ty	           pelvis_tz	       hip_flexion_r	     hip_adduction_r	      hip_rotation_r	        knee_angle_r	       ankle_angle_r	         mtp_angle_r	       hip_flexion_l	     hip_adduction_l	      hip_rotation_l	        knee_angle_l	       ankle_angle_l	         mtp_angle_l	    lumbar_extension	      lumbar_bending	     lumbar_rotation	 ercspn_r/activation	 intobl_r/activation	 extobl_r/activation	    abd_r/activation	    add_r/activation	hamstrings_r/activation	bifemsh_r/activation	glut_max_r/activation	iliopsoas_r/activation	rect_fem_r/activation	  vasti_r/activation	gastroc_r/activation	 soleus_r/activation	tib_ant_r/activation	 ercspn_l/activation	 intobl_l/activation	 extobl_l/activation	    abd_l/activation	    add_l/activation	hamstrings_l/activation	bifemsh_l/activation	glut_max_l/activation	iliopsoas_l/activation	rect_fem_l/activation	  vasti_l/activation	gastroc_l/activation	 soleus_l/activation	tib_ant_l/activation	
          0.53971590	         -5.42983302	         -0.17290428	         -7.36550765	          0.65845339	          0.85036172	          0.01155499	        -12.38627470	          1.11022017	          4.18283590	         -8.77378923	          8.58056769	         25.98347589	         30.28934068	         -1.90845350	         -2.70561094	         -5.09708785	          5.05427176	          0.27103757	         -8.46339102	          2.13801769	          1.57813308	          0.11546121	          0.00999999	          0.00999999	          0.03466323	          0.00999999	          0.02464779	          0.12878355	          0.01392175	          0.08978675	          0.01179905	          0.01000000	          0.12284552	          0.26742455	          0.01883868	          0.11317130	          0.15212542	          0.01000000	          0.02817917	          0.11570311	          0.05378314	          0.08154525	          0.07282034	          0.01642637	          0.01390698	          0.01000000	          0.01000000	          0.00999999	          0.33705681	
          0.55051021	         -5.42728066	         -0.23011146	         -7.38756102	          0.67377494	          0.84886500	          0.01152690	        -12.84447792	          1.09011536	          3.89355552	         -9.82634497	          7.78443604	         27.51862284	         30.01349468	         -1.75316746	         -2.42337037	         -6.44695067	          4.76993747	          0.25395310	         -8.34654749	          1.74587944	          1.76479267	          0.13355663	          0.00999999	          0.01000001	          0.02937798	          0.01435653	          0.02715607	          0.10914736	          0.01179905	          0.07609658	          0.01000001	          0.01000000	          0.10411473	          0.25000235	          0.01596627	          0.09591559	          0.12893020	          0.01000000	          0.03077242	          0.09806136	          0.06081533	          0.11198349	          0.11848246	          0.01392177	          0.01178653	          0.00999999	          0.01919676	          0.01371640	          0.36408770	
          0.56130453	         -5.42195849	         -0.27636168	         -7.36257976	          0.68920397	          0.84757014	          0.01142420	        -13.14896905	          1.07113671	          3.56701807	        -11.16209264	          6.88867035	         29.01541957	         29.67687142	         -1.63860787	         -2.16452486	         -7.71621530	          4.39626248	          0.24959052	         -8.22152519	          1.33713796	          1.94271354	          0.14098843	          0.00999999	          0.01000000	          0.02489859	          0.01216753	          0.02827040	          0.09250519	          0.01000001	          0.06449381	          0.01000006	          0.01000001	          0.08823991	          0.22917608	          0.01353182	          0.12517878	          0.10927166	          0.01000000	          0.10636204	          0.10422069	          0.05849036	          0.10135975	          0.12769195	          0.01179906	          0.01000000	          0.00999999	          0.01626975	          0.01162500	          0.40866426	
          0.57209885	         -5.41575576	         -0.33085312	         -7.29507102	          0.70455525	          0.84665624	          0.01123000	        -13.21720560	          1.07474256	          3.21313658	        -12.89542457	          5.85588278	         30.43360628	         29.35024454	         -1.53136901	         -1.96159700	         -8.96932251	          3.98171572	          0.22963178	         -8.10969241	          0.93585907	          2.11086972	          0.17904174	          0.00999999	          0.01000000	          0.02110220	          0.01367003	          0.02934415	          0.07840053	          0.01000000	          0.05466016	          0.01000003	          0.01000014	          0.07478558	          0.19497713	          0.01146857	          0.13069774	          0.09261053	          0.01000000	          0.15007276	          0.12769782	          0.05319494	          0.08590499	          0.15223052	          0.01000001	          0.01000001	          0.01000000	          0.01378903	          0.01000000	          0.42755578	
          0.58289317	         -5.40865075	         -0.38696971	         -7.19231341	          0.71971347	          0.84624624	          0.01094492	        -12.98083759	          1.09339843	          2.83367808	        -15.12636472	          4.69712398	         31.64323661	         29.07901195	         -1.41731393	         -1.78816753	        -10.33229002	          3.77086798	          0.21253605	         -8.01746077	          0.53870210	          2.27096308	          0.20735799	          0.00999999	          0.01000000	          0.01788465	          0.03077691	          0.02987760	          0.06644646	          0.00999999	          0.04632589	          0.01000001	          0.01000000	          0.06338270	          0.16524812	          0.00999999	          0.14089232	          0.07848980	          0.01000000	          0.18464853	          0.14843408	          0.05105182	          0.07280669	          0.17426532	          0.01000000	          0.01000001	          0.01847954	          0.01168656	          0.01000001	          0.43108334	
          0.59368748	         -5.40110253	         -0.44602184	         -7.05674511	          0.73460957	          0.84642059	          0.01058080	        -12.38109823	          1.12841805	          2.42047764	        -17.94176885	          3.43003596	         32.44661484	         28.84462674	         -1.29946454	         -1.64029613	        -11.75144231	          3.72499200	          0.19639204	         -7.94545047	          0.14993202	          2.42141787	          0.22987097	          0.00999999	          0.01000000	          0.01515770	          0.05507725	          0.03036119	          0.05631508	          0.00999999	          0.03926238	          0.01000000	          0.00999999	          0.05371846	          0.14005202	          0.00999999	          0.14396500	          0.06652212	          0.00999999	          0.20387070	          0.16583852	          0.05092002	          0.06170554	          0.18150296	          0.01000000	          0.01000000	          0.04904435	          0.01000001	          0.01000000	          0.42303108	
          0.60448180	         -5.39416813	         -0.51029118	         -6.88867347	          0.74922559	          0.84721644	          0.01015386	        -11.37784658	          1.17831533	          1.97009712	        -21.38882635	          2.02711858	         32.66191597	         28.56755165	         -1.17879995	         -1.51032501	        -13.06913516	          3.80176940	          0.18343391	         -7.88896488	         -0.22595494	          2.55883665	          0.23682806	          0.00999999	          0.01000000	          0.01284654	          0.07326957	          0.03041448	          0.04772848	          0.00999999	          0.03327588	          0.01000000	          0.00999999	          0.04552778	          0.11869768	          0.00999999	          0.13997876	          0.05637920	          0.00999999	          0.20686243	          0.17383601	          0.05235411	          0.05229704	          0.17946008	          0.01000000	          0.01000000	          0.07301524	          0.01000008	          0.01105937	          0.40712856	
          0.61527612	         -5.38893574	         -0.57821464	         -6.68852759	          0.76357197	          0.84858407	          0.00967379	         -9.96298339	          1.23357884	          1.50074905	        -25.42697236	          0.33640679	         32.28432202	         28.17952904	         -1.05224128	         -1.38595161	        -14.15540752	          3.96650533	          0.17464677	         -7.84228492	         -0.58834111	          2.68001273	          0.24199162	          0.00999999	          0.00999999	          0.01088777	          0.08618022	          0.02582820	          0.04045111	          0.00999999	          0.02820216	          0.01000000	          0.00999999	          0.03858596	          0.10059933	          0.01000014	          0.11863560	          0.04778282	          0.00999999	          0.19973507	          0.17454298	          0.05992035	          0.04432309	          0.16316158	          0.01000000	          0.01000001	          0.10068328	          0.01000000	          0.00999999	          0.39172331	
          0.62607044	         -5.38621417	         -0.64770505	         -6.45635504	          0.77764812	          0.85040779	          0.00913584	         -8.15970268	          1.28639322	          1.04374576	        -29.96439405	         -1.63992259	         31.08603287	         27.64587413	         -0.91482973	         -1.24082413	        -14.94207043	          4.19338538	          0.17067415	         -7.80486533	         -0.93458815	          2.78388380	          0.23445132	          0.01000000	          0.01000000	          0.00999999	          0.08737063	          0.02189009	          0.03428336	          0.00999999	          0.02390206	          0.01000000	          0.00999999	          0.03270259	          0.08526051	          0.06362648	          0.10054671	          0.04049717	          0.01000000	          0.20560534	          0.16370508	          0.06763263	          0.03756497	          0.13828363	          0.01000000	          0.01000000	          0.10894164	          0.01000003	          0.01000001	          0.36711967	
          0.63686476	         -5.38667643	         -0.70655885	         -6.20050173	          0.79140710	          0.85250135	          0.00856120	         -6.03085741	          1.33071621	          0.64208253	        -34.87620013	         -3.57943151	         28.60248446	         26.99507297	         -0.75700424	         -1.04471496	        -15.47609251	          4.48595326	          0.17703796	         -7.78224058	         -1.27668296	          2.87301264	          0.23325781	          0.03975250	          0.01000000	          0.00999999	          0.07404885	          0.01855244	          0.02905603	          0.01000000	          0.02025761	          0.06970860	          0.01008248	          0.02771628	          0.07226047	          0.19919010	          0.08521592	          0.03432239	          0.01000000	          0.22157144	          0.14245084	          0.08137682	          0.03183728	          0.11949303	          0.00999999	          0.01000000	          0.12429337	          0.01000002	          0.01000000	          0.34670681	
